<mxfile host="Electron" modified="2023-12-04T19:51:26.757Z" agent="Mozilla/5.0 (X11; Linux x86_64) AppleWebKit/537.36 (KHTML, like Gecko) draw.io/22.0.3 Chrome/114.0.5735.289 Electron/25.8.4 Safari/537.36" etag="Sg2jWECBxlLrUFmEQS--" version="22.0.3" type="device">
  <diagram name="Page-1" id="LCLt-VKqUHcCb4yVHi7Q">
    <mxGraphModel dx="1195" dy="646" grid="1" gridSize="10" guides="1" tooltips="1" connect="1" arrows="1" fold="1" page="1" pageScale="1" pageWidth="850" pageHeight="1100" math="0" shadow="0">
      <root>
        <mxCell id="0" />
        <mxCell id="1" parent="0" />
        <mxCell id="6EQC8CX66Dj-WZFfLZq5-47" value="Actor" style="shape=umlActor;verticalLabelPosition=bottom;verticalAlign=top;html=1;fillColor=#1ba1e2;fontColor=#ffffff;strokeColor=#006EAF;" parent="1" vertex="1">
          <mxGeometry x="80" y="110" width="30" height="60" as="geometry" />
        </mxCell>
        <mxCell id="6EQC8CX66Dj-WZFfLZq5-48" value="" style="html=1;points=[];perimeter=orthogonalPerimeter;fillColor=#1ba1e2;fontColor=#ffffff;strokeColor=#006EAF;" parent="1" vertex="1">
          <mxGeometry x="92.5" y="200" width="5" height="520" as="geometry" />
        </mxCell>
        <mxCell id="6EQC8CX66Dj-WZFfLZq5-49" value="" style="html=1;verticalAlign=bottom;labelBackgroundColor=none;endArrow=block;endFill=1;" parent="1" edge="1">
          <mxGeometry width="160" relative="1" as="geometry">
            <mxPoint x="97.5" y="220" as="sourcePoint" />
            <mxPoint x="257.5" y="220" as="targetPoint" />
          </mxGeometry>
        </mxCell>
        <mxCell id="6EQC8CX66Dj-WZFfLZq5-50" value="1: divideStack()&amp;nbsp;" style="text;html=1;strokeColor=none;fillColor=none;align=left;verticalAlign=middle;whiteSpace=wrap;rounded=0;" parent="1" vertex="1">
          <mxGeometry x="100" y="190" width="160" height="30" as="geometry" />
        </mxCell>
        <mxCell id="6EQC8CX66Dj-WZFfLZq5-51" value=":Controller" style="rounded=0;whiteSpace=wrap;html=1;fillColor=#1ba1e2;fontColor=#ffffff;strokeColor=#006EAF;" parent="1" vertex="1">
          <mxGeometry x="210" y="120" width="120" height="60" as="geometry" />
        </mxCell>
        <mxCell id="6EQC8CX66Dj-WZFfLZq5-52" value="" style="endArrow=none;dashed=1;html=1;startArrow=none;" parent="1" source="6EQC8CX66Dj-WZFfLZq5-54" edge="1">
          <mxGeometry width="50" height="50" relative="1" as="geometry">
            <mxPoint x="264.5" y="730" as="sourcePoint" />
            <mxPoint x="264.5" y="190" as="targetPoint" />
          </mxGeometry>
        </mxCell>
        <mxCell id="6EQC8CX66Dj-WZFfLZq5-53" value="" style="endArrow=none;dashed=1;html=1;" parent="1" edge="1">
          <mxGeometry width="50" height="50" relative="1" as="geometry">
            <mxPoint x="264" y="800" as="sourcePoint" />
            <mxPoint x="264.31" y="720" as="targetPoint" />
          </mxGeometry>
        </mxCell>
        <mxCell id="6EQC8CX66Dj-WZFfLZq5-54" value="" style="html=1;points=[];perimeter=orthogonalPerimeter;fillColor=#1ba1e2;fontColor=#ffffff;strokeColor=#006EAF;" parent="1" vertex="1">
          <mxGeometry x="260" y="200" width="5" height="520" as="geometry" />
        </mxCell>
        <mxCell id="6EQC8CX66Dj-WZFfLZq5-55" value="" style="html=1;verticalAlign=bottom;labelBackgroundColor=none;endArrow=block;endFill=1;exitX=0.669;exitY=0.19;exitDx=0;exitDy=0;exitPerimeter=0;" parent="1" edge="1">
          <mxGeometry width="160" relative="1" as="geometry">
            <mxPoint x="265.00500000000005" y="331.5999999999999" as="sourcePoint" />
            <mxPoint x="530" y="330" as="targetPoint" />
          </mxGeometry>
        </mxCell>
        <mxCell id="6EQC8CX66Dj-WZFfLZq5-56" value="1.2: drop(): NumeroComplesso" style="text;html=1;strokeColor=none;fillColor=none;align=left;verticalAlign=middle;whiteSpace=wrap;rounded=0;" parent="1" vertex="1">
          <mxGeometry x="265" y="310" width="195" height="30" as="geometry" />
        </mxCell>
        <mxCell id="6EQC8CX66Dj-WZFfLZq5-57" value="" style="html=1;verticalAlign=bottom;labelBackgroundColor=none;endArrow=block;endFill=1;" parent="1" edge="1">
          <mxGeometry width="160" relative="1" as="geometry">
            <mxPoint x="265" y="250" as="sourcePoint" />
            <mxPoint x="540" y="250" as="targetPoint" />
          </mxGeometry>
        </mxCell>
        <mxCell id="6EQC8CX66Dj-WZFfLZq5-58" value="1.1: isEmpty(): boolean" style="text;html=1;strokeColor=none;fillColor=none;align=left;verticalAlign=middle;whiteSpace=wrap;rounded=0;" parent="1" vertex="1">
          <mxGeometry x="265" y="220" width="200" height="30" as="geometry" />
        </mxCell>
        <mxCell id="6EQC8CX66Dj-WZFfLZq5-59" value="stack:Stack" style="rounded=0;whiteSpace=wrap;html=1;fillColor=#1ba1e2;fontColor=#ffffff;strokeColor=#006EAF;" parent="1" vertex="1">
          <mxGeometry x="486.48" y="120" width="120" height="60" as="geometry" />
        </mxCell>
        <mxCell id="6EQC8CX66Dj-WZFfLZq5-60" value="" style="endArrow=none;dashed=1;html=1;exitX=0.438;exitY=-0.002;exitDx=0;exitDy=0;exitPerimeter=0;entryX=0.5;entryY=1;entryDx=0;entryDy=0;" parent="1" source="6EQC8CX66Dj-WZFfLZq5-87" target="6EQC8CX66Dj-WZFfLZq5-59" edge="1">
          <mxGeometry width="50" height="50" relative="1" as="geometry">
            <mxPoint x="549.3599999999999" y="236.14" as="sourcePoint" />
            <mxPoint x="548.98" y="206.1" as="targetPoint" />
          </mxGeometry>
        </mxCell>
        <mxCell id="6EQC8CX66Dj-WZFfLZq5-61" value="" style="html=1;verticalAlign=bottom;labelBackgroundColor=none;endArrow=block;endFill=1;" parent="1" edge="1">
          <mxGeometry width="160" relative="1" as="geometry">
            <mxPoint x="530" y="340" as="sourcePoint" />
            <mxPoint x="265" y="339.76" as="targetPoint" />
          </mxGeometry>
        </mxCell>
        <mxCell id="6EQC8CX66Dj-WZFfLZq5-62" value="1.5: add(:NumeroComplesso)" style="text;html=1;strokeColor=none;fillColor=none;align=left;verticalAlign=middle;whiteSpace=wrap;rounded=0;" parent="1" vertex="1">
          <mxGeometry x="265" y="535" width="205" height="30" as="geometry" />
        </mxCell>
        <mxCell id="6EQC8CX66Dj-WZFfLZq5-63" value="alt" style="shape=umlFrame;whiteSpace=wrap;html=1;pointerEvents=0;" parent="1" vertex="1">
          <mxGeometry x="80" y="300" width="479" height="350" as="geometry" />
        </mxCell>
        <mxCell id="6EQC8CX66Dj-WZFfLZq5-64" value="" style="html=1;verticalAlign=bottom;labelBackgroundColor=none;endArrow=block;endFill=1;" parent="1" edge="1">
          <mxGeometry width="160" relative="1" as="geometry">
            <mxPoint x="255" y="575" as="sourcePoint" />
            <mxPoint x="97.5" y="574.5" as="targetPoint" />
          </mxGeometry>
        </mxCell>
        <mxCell id="6EQC8CX66Dj-WZFfLZq5-65" value="1.6: return" style="text;html=1;strokeColor=none;fillColor=none;align=left;verticalAlign=middle;whiteSpace=wrap;rounded=0;" parent="1" vertex="1">
          <mxGeometry x="110" y="550" width="130" height="30" as="geometry" />
        </mxCell>
        <mxCell id="6EQC8CX66Dj-WZFfLZq5-68" value="[!isEmpty()]" style="text;html=1;align=center;verticalAlign=middle;resizable=0;points=[];autosize=1;strokeColor=none;fillColor=none;" parent="1" vertex="1">
          <mxGeometry x="150" y="300" width="80" height="30" as="geometry" />
        </mxCell>
        <mxCell id="6EQC8CX66Dj-WZFfLZq5-69" value=":Calculatore" style="rounded=0;whiteSpace=wrap;html=1;fillColor=#1ba1e2;fontColor=#ffffff;strokeColor=#006EAF;" parent="1" vertex="1">
          <mxGeometry x="650" y="120" width="120" height="60" as="geometry" />
        </mxCell>
        <mxCell id="6EQC8CX66Dj-WZFfLZq5-70" value="" style="endArrow=none;dashed=1;html=1;startArrow=none;rounded=0;" parent="1" source="6EQC8CX66Dj-WZFfLZq5-72" edge="1">
          <mxGeometry width="50" height="50" relative="1" as="geometry">
            <mxPoint x="724.5" y="720" as="sourcePoint" />
            <mxPoint x="724.5" y="180" as="targetPoint" />
          </mxGeometry>
        </mxCell>
        <mxCell id="6EQC8CX66Dj-WZFfLZq5-71" value="" style="endArrow=none;dashed=1;html=1;rounded=0;" parent="1" target="6EQC8CX66Dj-WZFfLZq5-72" edge="1">
          <mxGeometry width="50" height="50" relative="1" as="geometry">
            <mxPoint x="723" y="802.7586206896551" as="sourcePoint" />
            <mxPoint x="724.5" y="180" as="targetPoint" />
          </mxGeometry>
        </mxCell>
        <mxCell id="6EQC8CX66Dj-WZFfLZq5-72" value="" style="html=1;points=[];perimeter=orthogonalPerimeter;fillColor=#1ba1e2;fontColor=#ffffff;strokeColor=#006EAF;" parent="1" vertex="1">
          <mxGeometry x="720" y="440" width="5" height="30" as="geometry" />
        </mxCell>
        <mxCell id="6EQC8CX66Dj-WZFfLZq5-73" value="1.4: divideStack(:NumeroComplesso, :NumeroComplesso): NumeroComplesso" style="text;html=1;strokeColor=none;fillColor=none;align=left;verticalAlign=middle;whiteSpace=wrap;rounded=0;" parent="1" vertex="1">
          <mxGeometry x="265" y="415" width="285" height="30" as="geometry" />
        </mxCell>
        <mxCell id="6EQC8CX66Dj-WZFfLZq5-74" value="" style="html=1;verticalAlign=bottom;labelBackgroundColor=none;endArrow=block;endFill=1;exitX=0.669;exitY=0.19;exitDx=0;exitDy=0;exitPerimeter=0;" parent="1" edge="1">
          <mxGeometry width="160" relative="1" as="geometry">
            <mxPoint x="265.00500000000005" y="450.69999999999993" as="sourcePoint" />
            <mxPoint x="710" y="449.34000000000003" as="targetPoint" />
          </mxGeometry>
        </mxCell>
        <mxCell id="6EQC8CX66Dj-WZFfLZq5-75" value="" style="html=1;verticalAlign=bottom;labelBackgroundColor=none;endArrow=block;endFill=1;" parent="1" edge="1">
          <mxGeometry width="160" relative="1" as="geometry">
            <mxPoint x="710" y="459.34000000000003" as="sourcePoint" />
            <mxPoint x="265" y="458.86" as="targetPoint" />
          </mxGeometry>
        </mxCell>
        <mxCell id="6EQC8CX66Dj-WZFfLZq5-76" value="" style="html=1;verticalAlign=bottom;labelBackgroundColor=none;endArrow=block;endFill=1;" parent="1" edge="1">
          <mxGeometry width="160" relative="1" as="geometry">
            <mxPoint x="540" y="260" as="sourcePoint" />
            <mxPoint x="265" y="259.83" as="targetPoint" />
          </mxGeometry>
        </mxCell>
        <mxCell id="6EQC8CX66Dj-WZFfLZq5-77" value="" style="endArrow=none;dashed=1;html=1;entryX=0.852;entryY=0.909;entryDx=0;entryDy=0;entryPerimeter=0;" parent="1" target="6EQC8CX66Dj-WZFfLZq5-87" edge="1">
          <mxGeometry width="50" height="50" relative="1" as="geometry">
            <mxPoint x="549" y="800" as="sourcePoint" />
            <mxPoint x="548.98" y="386.1" as="targetPoint" />
          </mxGeometry>
        </mxCell>
        <mxCell id="6EQC8CX66Dj-WZFfLZq5-78" value="alt" style="shape=umlFrame;whiteSpace=wrap;html=1;pointerEvents=0;" parent="1" vertex="1">
          <mxGeometry x="90" y="370" width="470" height="270" as="geometry" />
        </mxCell>
        <mxCell id="6EQC8CX66Dj-WZFfLZq5-79" value="" style="endArrow=none;dashed=1;html=1;dashPattern=1 3;strokeWidth=2;rounded=0;exitX=-0.035;exitY=-0.007;exitDx=0;exitDy=0;exitPerimeter=0;entryX=0.998;entryY=0.851;entryDx=0;entryDy=0;entryPerimeter=0;" parent="1" source="6EQC8CX66Dj-WZFfLZq5-80" target="6EQC8CX66Dj-WZFfLZq5-78" edge="1">
          <mxGeometry width="50" height="50" relative="1" as="geometry">
            <mxPoint x="85" y="520" as="sourcePoint" />
            <mxPoint x="555" y="520" as="targetPoint" />
          </mxGeometry>
        </mxCell>
        <mxCell id="6EQC8CX66Dj-WZFfLZq5-80" value="[else]" style="text;html=1;align=center;verticalAlign=middle;resizable=0;points=[];autosize=1;strokeColor=none;fillColor=none;" parent="1" vertex="1">
          <mxGeometry x="90" y="600" width="50" height="30" as="geometry" />
        </mxCell>
        <mxCell id="6EQC8CX66Dj-WZFfLZq5-81" value="" style="html=1;verticalAlign=bottom;labelBackgroundColor=none;endArrow=block;endFill=1;exitX=0.669;exitY=0.19;exitDx=0;exitDy=0;exitPerimeter=0;" parent="1" edge="1">
          <mxGeometry width="160" relative="1" as="geometry">
            <mxPoint x="265.00500000000005" y="401.5999999999999" as="sourcePoint" />
            <mxPoint x="530" y="400" as="targetPoint" />
          </mxGeometry>
        </mxCell>
        <mxCell id="6EQC8CX66Dj-WZFfLZq5-82" value="1.3: drop(): NumeroComplesso" style="text;html=1;strokeColor=none;fillColor=none;align=left;verticalAlign=middle;whiteSpace=wrap;rounded=0;" parent="1" vertex="1">
          <mxGeometry x="265" y="380" width="195" height="30" as="geometry" />
        </mxCell>
        <mxCell id="6EQC8CX66Dj-WZFfLZq5-83" value="" style="html=1;verticalAlign=bottom;labelBackgroundColor=none;endArrow=block;endFill=1;" parent="1" edge="1">
          <mxGeometry width="160" relative="1" as="geometry">
            <mxPoint x="530" y="410" as="sourcePoint" />
            <mxPoint x="265" y="409.76" as="targetPoint" />
          </mxGeometry>
        </mxCell>
        <mxCell id="6EQC8CX66Dj-WZFfLZq5-84" value="" style="html=1;verticalAlign=bottom;labelBackgroundColor=none;endArrow=block;endFill=1;exitX=0.669;exitY=0.19;exitDx=0;exitDy=0;exitPerimeter=0;" parent="1" edge="1">
          <mxGeometry width="160" relative="1" as="geometry">
            <mxPoint x="264.99500000000006" y="556.1499999999999" as="sourcePoint" />
            <mxPoint x="540" y="555" as="targetPoint" />
          </mxGeometry>
        </mxCell>
        <mxCell id="6EQC8CX66Dj-WZFfLZq5-85" value="1.3: add(:NumeroComplesso)" style="text;html=1;strokeColor=none;fillColor=none;align=left;verticalAlign=middle;whiteSpace=wrap;rounded=0;" parent="1" vertex="1">
          <mxGeometry x="265" y="610" width="205" height="30" as="geometry" />
        </mxCell>
        <mxCell id="6EQC8CX66Dj-WZFfLZq5-86" value="" style="html=1;verticalAlign=bottom;labelBackgroundColor=none;endArrow=block;endFill=1;exitX=0.669;exitY=0.19;exitDx=0;exitDy=0;exitPerimeter=0;" parent="1" edge="1">
          <mxGeometry width="160" relative="1" as="geometry">
            <mxPoint x="264.99500000000006" y="631.1499999999999" as="sourcePoint" />
            <mxPoint x="540" y="630" as="targetPoint" />
          </mxGeometry>
        </mxCell>
        <mxCell id="6EQC8CX66Dj-WZFfLZq5-87" value="" style="html=1;points=[];perimeter=orthogonalPerimeter;fillColor=#1ba1e2;fontColor=#ffffff;strokeColor=#006EAF;" parent="1" vertex="1">
          <mxGeometry x="543.98" y="240" width="5" height="390" as="geometry" />
        </mxCell>
        <mxCell id="6EQC8CX66Dj-WZFfLZq5-88" value="[!isEmpty()]" style="text;html=1;align=center;verticalAlign=middle;resizable=0;points=[];autosize=1;strokeColor=none;fillColor=none;" parent="1" vertex="1">
          <mxGeometry x="145" y="370" width="80" height="30" as="geometry" />
        </mxCell>
        <mxCell id="6EQC8CX66Dj-WZFfLZq5-89" value="&lt;span style=&quot;color: rgb(240, 240, 240); font-family: Helvetica; font-size: 12px; font-style: normal; font-variant-ligatures: normal; font-variant-caps: normal; font-weight: 400; letter-spacing: normal; orphans: 2; text-align: left; text-indent: 0px; text-transform: none; widows: 2; word-spacing: 0px; -webkit-text-stroke-width: 0px; background-color: rgb(27, 29, 30); text-decoration-thickness: initial; text-decoration-style: initial; text-decoration-color: initial; float: none; display: inline !important;&quot;&gt;1.3: errorHandler(NoValueInStackToOperate)&lt;/span&gt;" style="text;whiteSpace=wrap;html=1;" parent="1" vertex="1">
          <mxGeometry x="265" y="660" width="245" height="20" as="geometry" />
        </mxCell>
        <mxCell id="6EQC8CX66Dj-WZFfLZq5-90" value="" style="html=1;verticalAlign=bottom;labelBackgroundColor=none;endArrow=block;endFill=1;rounded=0;" parent="1" edge="1">
          <mxGeometry width="160" relative="1" as="geometry">
            <mxPoint x="354.99999999999994" y="689.31" as="sourcePoint" />
            <mxPoint x="264.99999999999994" y="689.31" as="targetPoint" />
          </mxGeometry>
        </mxCell>
        <mxCell id="6EQC8CX66Dj-WZFfLZq5-91" value="" style="endArrow=none;html=1;rounded=0;" parent="1" edge="1">
          <mxGeometry width="50" height="50" relative="1" as="geometry">
            <mxPoint x="264.99999999999994" y="679.31" as="sourcePoint" />
            <mxPoint x="354.99999999999994" y="679.31" as="targetPoint" />
          </mxGeometry>
        </mxCell>
        <mxCell id="6EQC8CX66Dj-WZFfLZq5-92" value="" style="endArrow=none;html=1;rounded=0;" parent="1" edge="1">
          <mxGeometry width="50" height="50" relative="1" as="geometry">
            <mxPoint x="355" y="690" as="sourcePoint" />
            <mxPoint x="354.99999999999994" y="679.31" as="targetPoint" />
            <Array as="points" />
          </mxGeometry>
        </mxCell>
        <mxCell id="6EQC8CX66Dj-WZFfLZq5-94" value="alt" style="shape=umlFrame;whiteSpace=wrap;html=1;pointerEvents=0;" parent="1" vertex="1">
          <mxGeometry x="100" y="470" width="460" height="120" as="geometry" />
        </mxCell>
        <mxCell id="6EQC8CX66Dj-WZFfLZq5-95" value="[divideStack() == null]" style="text;html=1;align=center;verticalAlign=middle;resizable=0;points=[];autosize=1;strokeColor=none;fillColor=none;" parent="1" vertex="1">
          <mxGeometry x="160" y="470" width="140" height="30" as="geometry" />
        </mxCell>
        <mxCell id="6EQC8CX66Dj-WZFfLZq5-100" value="&lt;span style=&quot;color: rgb(240, 240, 240); font-family: Helvetica; font-size: 12px; font-style: normal; font-variant-ligatures: normal; font-variant-caps: normal; font-weight: 400; letter-spacing: normal; orphans: 2; text-align: left; text-indent: 0px; text-transform: none; widows: 2; word-spacing: 0px; -webkit-text-stroke-width: 0px; background-color: rgb(27, 29, 30); text-decoration-thickness: initial; text-decoration-style: initial; text-decoration-color: initial; float: none; display: inline !important;&quot;&gt;1.5: errorHandler(CantDivideByZero)&lt;/span&gt;" style="text;whiteSpace=wrap;html=1;" parent="1" vertex="1">
          <mxGeometry x="265" y="490" width="245" height="20" as="geometry" />
        </mxCell>
        <mxCell id="6EQC8CX66Dj-WZFfLZq5-101" value="" style="html=1;verticalAlign=bottom;labelBackgroundColor=none;endArrow=block;endFill=1;rounded=0;" parent="1" edge="1">
          <mxGeometry width="160" relative="1" as="geometry">
            <mxPoint x="354.99999999999994" y="520" as="sourcePoint" />
            <mxPoint x="264.99999999999994" y="520" as="targetPoint" />
          </mxGeometry>
        </mxCell>
        <mxCell id="6EQC8CX66Dj-WZFfLZq5-102" value="" style="endArrow=none;html=1;rounded=0;" parent="1" edge="1">
          <mxGeometry width="50" height="50" relative="1" as="geometry">
            <mxPoint x="264.99999999999994" y="509.99999999999994" as="sourcePoint" />
            <mxPoint x="354.99999999999994" y="509.99999999999994" as="targetPoint" />
          </mxGeometry>
        </mxCell>
        <mxCell id="6EQC8CX66Dj-WZFfLZq5-103" value="" style="endArrow=none;html=1;rounded=0;" parent="1" edge="1">
          <mxGeometry width="50" height="50" relative="1" as="geometry">
            <mxPoint x="354.99999999999994" y="519.31" as="sourcePoint" />
            <mxPoint x="355" y="510" as="targetPoint" />
            <Array as="points" />
          </mxGeometry>
        </mxCell>
        <mxCell id="6EQC8CX66Dj-WZFfLZq5-105" value="" style="endArrow=none;dashed=1;html=1;" parent="1" edge="1">
          <mxGeometry width="50" height="50" relative="1" as="geometry">
            <mxPoint x="97.5" y="799.31" as="sourcePoint" />
            <mxPoint x="97.81" y="719.31" as="targetPoint" />
          </mxGeometry>
        </mxCell>
        <mxCell id="yKbVT6-n95N_Z1ivXLKA-1" value="" style="endArrow=none;dashed=1;html=1;dashPattern=1 3;strokeWidth=2;rounded=0;exitX=-0.035;exitY=-0.007;exitDx=0;exitDy=0;exitPerimeter=0;entryX=0.998;entryY=0.851;entryDx=0;entryDy=0;entryPerimeter=0;" edge="1" parent="1">
          <mxGeometry width="50" height="50" relative="1" as="geometry">
            <mxPoint x="100" y="529.58" as="sourcePoint" />
            <mxPoint x="571" y="529.58" as="targetPoint" />
          </mxGeometry>
        </mxCell>
        <mxCell id="yKbVT6-n95N_Z1ivXLKA-2" value="[else]" style="text;html=1;align=center;verticalAlign=middle;resizable=0;points=[];autosize=1;strokeColor=none;fillColor=none;" vertex="1" parent="1">
          <mxGeometry x="95" y="530" width="50" height="30" as="geometry" />
        </mxCell>
      </root>
    </mxGraphModel>
  </diagram>
</mxfile>
